<svg xmlns="http://www.w3.org/2000/svg" width="40" height="40" viewBox="0 0 40 40" fill="none">
  <circle cx="20" cy="20" r="20" fill="#0d0d0d"/>
  <circle cx="20" cy="20" r="18.5" stroke="#e8a838" stroke-opacity="0.5"/>
  <circle cx="20" cy="20" r="13" stroke="#e8a838" stroke-opacity="0.28"/>
  <!-- 12 evenly-spaced tick marks (r=13 inner → r=18 outer), i=0..11 at 30° steps -->
  <line x1="33" y1="20" x2="38" y2="20" stroke="#e8a838" stroke-opacity="0.45" stroke-width="1"/>
  <line x1="31.26" y1="26.5" x2="35.59" y2="29" stroke="#e8a838" stroke-opacity="0.45" stroke-width="1"/>
  <line x1="26.5" y1="31.26" x2="29" y2="35.59" stroke="#e8a838" stroke-opacity="0.45" stroke-width="1"/>
  <line x1="20" y1="33" x2="20" y2="38" stroke="#e8a838" stroke-opacity="0.45" stroke-width="1"/>
  <line x1="13.5" y1="31.26" x2="11" y2="35.59" stroke="#e8a838" stroke-opacity="0.45" stroke-width="1"/>
  <line x1="8.74" y1="26.5" x2="4.41" y2="29" stroke="#e8a838" stroke-opacity="0.45" stroke-width="1"/>
  <line x1="7" y1="20" x2="2" y2="20" stroke="#e8a838" stroke-opacity="0.45" stroke-width="1"/>
  <line x1="8.74" y1="13.5" x2="4.41" y2="11" stroke="#e8a838" stroke-opacity="0.45" stroke-width="1"/>
  <line x1="13.5" y1="8.74" x2="11" y2="4.41" stroke="#e8a838" stroke-opacity="0.45" stroke-width="1"/>
  <line x1="20" y1="7" x2="20" y2="2" stroke="#e8a838" stroke-opacity="0.45" stroke-width="1"/>
  <line x1="26.5" y1="8.74" x2="29" y2="4.41" stroke="#e8a838" stroke-opacity="0.45" stroke-width="1"/>
  <line x1="31.26" y1="13.5" x2="35.59" y2="11" stroke="#e8a838" stroke-opacity="0.45" stroke-width="1"/>
  <!-- compass arrow -->
  <path d="M20 11 L26 26 L20 22 L14 26 Z" fill="#e8a838" fill-opacity="0.9"/>
</svg>
